# xmcd
#
# Track frame offsets:
#	150
#	10500
#	24424
#	36459
#	48309
#	59651
#	71412
#	83123
#	93832
#	143161
#	156217
#	165831
#	181185
#	191340
#	202416
#	215074
#	231974
#	249734
#	269975
#	283929
#	293850
#	305962
#
# Disc length: 4391 seconds
#
# Revision: 2
# Processed by: cddbd v1.5.1PL0 Copyright (c) Steve Scherf et al.
# Submitted via: dBpowerAMP V4.0
#
DISCID=50112516
DTITLE=Credence Clearwater Revival - The Premier Collection
DYEAR=2003
DGENRE=Rock
TTITLE0=bad moon rising
TTITLE1=proud mary
TTITLE2=down on the corner
TTITLE3=have you ever seen the rain
TTITLE4=lookin out my back door
TTITLE5=hey tonight
TTITLE6=up around the bend
TTITLE7=who´ll stop the rain
TTITLE8=i heard it through the grapewine
TTITLE9=cotton fields
TTITLE10=travellin´band
TTITLE11=before you accuse me
TTITLE12=fortunate son
TTITLE13=green river
TTITLE14=sweet hitch hiker
TTITLE15=sailor´s lament
TTITLE16=someday never comes
TTITLE17=suzie q
TTITLE18=night time is the right time
TTITLE19=hello mary lou
TTITLE20=good golly miss molly
TTITLE21=born on the bayou
EXTD=
EXTT0=
EXTT1=
EXTT2=
EXTT3=
EXTT4=
EXTT5=
EXTT6=
EXTT7=
EXTT8=
EXTT9=
EXTT10=
EXTT11=
EXTT12=
EXTT13=
EXTT14=
EXTT15=
EXTT16=
EXTT17=
EXTT18=
EXTT19=
EXTT20=
EXTT21=
PLAYORDER=
